<svg width="6" height="10" viewBox="0 0 6 10" fill="none" xmlns="http://www.w3.org/2000/svg">
<path d="M5.835 5.53998C5.94052 5.43459 5.99987 5.29161 6 5.14248V4.85748C5.99827 4.70867 5.93916 4.56627 5.835 4.45998L1.98 0.612481C1.90959 0.541489 1.81374 0.501556 1.71375 0.501556C1.61376 0.501556 1.51791 0.541489 1.4475 0.612481L0.914999 1.14498C0.844451 1.2141 0.804696 1.30871 0.804696 1.40748C0.804696 1.50625 0.844451 1.60086 0.914999 1.66998L4.2525 4.99998L0.914999 8.32998C0.844007 8.40039 0.804075 8.49624 0.804075 8.59623C0.804075 8.69622 0.844007 8.79207 0.914999 8.86248L1.4475 9.38748C1.51791 9.45847 1.61376 9.4984 1.71375 9.4984C1.81374 9.4984 1.90959 9.45847 1.98 9.38748L5.835 5.53998Z" fill="#80869D"/>
</svg>
