<svg width="6" height="10" viewBox="0 0 6 10" fill="none" xmlns="http://www.w3.org/2000/svg">
<path d="M0.165 5.53998C0.0594806 5.43459 0.000131289 5.29161 0 5.14248V4.85748C0.001728 4.70867 0.060837 4.56627 0.165 4.45998L4.02 0.612481C4.09041 0.541489 4.18626 0.501556 4.28625 0.501556C4.38624 0.501556 4.48209 0.541489 4.5525 0.612481L5.085 1.14498C5.15555 1.2141 5.1953 1.30871 5.1953 1.40748C5.1953 1.50625 5.15555 1.60086 5.085 1.66998L1.7475 4.99998L5.085 8.32998C5.15599 8.40039 5.19592 8.49624 5.19592 8.59623C5.19592 8.69622 5.15599 8.79207 5.085 8.86248L4.5525 9.38748C4.48209 9.45847 4.38624 9.4984 4.28625 9.4984C4.18626 9.4984 4.09041 9.45847 4.02 9.38748L0.165 5.53998Z" fill="#80869D"/>
</svg>
