<svg width="8" height="8" viewBox="0 0 8 8" fill="none" xmlns="http://www.w3.org/2000/svg">
<path d="M1.45461 3.27269H6.54544C6.64393 3.27269 6.72918 3.23673 6.80112 3.16475C6.87302 3.09279 6.90912 3.00758 6.90912 2.90909C6.90912 2.8106 6.87304 2.72543 6.80112 2.65337L4.25569 0.107941C4.18377 0.0360599 4.09858 0 4.00003 0C3.90148 0 3.81629 0.0360599 3.74431 0.107941L1.19888 2.65337C1.1269 2.72535 1.09094 2.8106 1.09094 2.90909C1.09094 3.00756 1.1269 3.09279 1.19888 3.16475C1.27094 3.23673 1.35614 3.27269 1.45461 3.27269Z" fill="#323232"/>
<path d="M6.54544 4.72736H1.45461C1.35606 4.72736 1.27086 4.76334 1.19888 4.83524C1.1269 4.90722 1.09094 4.99241 1.09094 5.0909C1.09094 5.18939 1.1269 5.27464 1.19888 5.34658L3.74431 7.89197C3.81637 7.96395 3.90156 7.99999 4.00003 7.99999C4.0985 7.99999 4.18377 7.96395 4.25569 7.89197L6.80112 5.34656C6.87302 5.27464 6.90912 5.18939 6.90912 5.09088C6.90912 4.99241 6.87304 4.90722 6.80112 4.83522C6.7292 4.76326 6.64393 4.72736 6.54544 4.72736Z" fill="#323232"/>
</svg>
