<svg width="16" height="16" viewBox="0 0 16 16" fill="none" xmlns="http://www.w3.org/2000/svg">
<circle cx="8" cy="7.33337" r="2" stroke="#80869D"/>
<path d="M13.5 7.2593C13.5 8.72861 12.6434 10.4689 11.4618 11.8676C10.8776 12.5592 10.2331 13.1438 9.61221 13.5516C8.98115 13.9661 8.42259 14.1667 8 14.1667V15.1667C8.70241 15.1667 9.45635 14.8504 10.1612 14.3874C10.8763 13.9177 11.5911 13.2642 12.2257 12.513C13.4816 11.0262 14.5 9.06279 14.5 7.2593H13.5ZM8 14.1667C7.57741 14.1667 7.01885 13.9661 6.38779 13.5516C5.76693 13.1438 5.12235 12.5592 4.53821 11.8676C3.35662 10.4689 2.5 8.72861 2.5 7.2593H1.5C1.5 9.06279 2.51838 11.0262 3.77429 12.513C4.4089 13.2642 5.1237 13.9177 5.83878 14.3874C6.54365 14.8504 7.29759 15.1667 8 15.1667V14.1667ZM2.5 7.2593C2.5 4.26848 4.95656 1.83337 8 1.83337V0.833374C4.41602 0.833374 1.5 3.70452 1.5 7.2593H2.5ZM8 1.83337C11.0434 1.83337 13.5 4.26848 13.5 7.2593H14.5C14.5 3.70452 11.584 0.833374 8 0.833374V1.83337Z" fill="#80869D"/>
</svg>
