<svg width="18" height="18" viewBox="0 0 18 18" fill="none" xmlns="http://www.w3.org/2000/svg">
<path d="M2.25 4.5C1.83579 4.5 1.5 4.83579 1.5 5.25C1.5 5.66421 1.83579 6 2.25 6V4.5ZM2.25 12C1.83579 12 1.5 12.3358 1.5 12.75C1.5 13.1642 1.83579 13.5 2.25 13.5V12ZM6.75 13.5C7.16421 13.5 7.5 13.1642 7.5 12.75C7.5 12.3358 7.16421 12 6.75 12V13.5ZM15.75 13.5C16.1642 13.5 16.5 13.1642 16.5 12.75C16.5 12.3358 16.1642 12 15.75 12V13.5ZM11.25 4.5C10.8358 4.5 10.5 4.83579 10.5 5.25C10.5 5.66421 10.8358 6 11.25 6V4.5ZM15.75 6C16.1642 6 16.5 5.66421 16.5 5.25C16.5 4.83579 16.1642 4.5 15.75 4.5V6ZM2.25 6H4.5V4.5H2.25V6ZM2.25 13.5H6.75V12H2.25V13.5ZM13.5 13.5H15.75V12H13.5V13.5ZM11.25 6H15.75V4.5H11.25V6ZM12.75 12.75C12.75 13.5784 12.0784 14.25 11.25 14.25V15.75C12.9069 15.75 14.25 14.4069 14.25 12.75H12.75ZM11.25 14.25C10.4216 14.25 9.75 13.5784 9.75 12.75H8.25C8.25 14.4069 9.59315 15.75 11.25 15.75V14.25ZM9.75 12.75C9.75 11.9216 10.4216 11.25 11.25 11.25V9.75C9.59315 9.75 8.25 11.0931 8.25 12.75H9.75ZM11.25 11.25C12.0784 11.25 12.75 11.9216 12.75 12.75H14.25C14.25 11.0931 12.9069 9.75 11.25 9.75V11.25ZM8.25 5.25C8.25 6.07843 7.57843 6.75 6.75 6.75V8.25C8.40685 8.25 9.75 6.90685 9.75 5.25H8.25ZM6.75 6.75C5.92157 6.75 5.25 6.07843 5.25 5.25H3.75C3.75 6.90685 5.09315 8.25 6.75 8.25V6.75ZM5.25 5.25C5.25 4.42157 5.92157 3.75 6.75 3.75V2.25C5.09315 2.25 3.75 3.59315 3.75 5.25H5.25ZM6.75 3.75C7.57843 3.75 8.25 4.42157 8.25 5.25H9.75C9.75 3.59315 8.40685 2.25 6.75 2.25V3.75Z" fill="#28303F"/>
</svg>
