<svg width="20" height="20" viewBox="0 0 20 20" fill="none" xmlns="http://www.w3.org/2000/svg">
<path d="M16.0059 14.8274C15.6805 14.5019 15.1529 14.5019 14.8274 14.8274C14.502 15.1528 14.502 15.6804 14.8274 16.0059L16.0059 14.8274ZM17.7441 18.9225C18.0695 19.248 18.5972 19.248 18.9226 18.9225C19.248 18.5971 19.248 18.0695 18.9226 17.744L17.7441 18.9225ZM18.3333 9.58329C18.3333 4.7508 14.4158 0.833293 9.58334 0.833293V2.49996C13.4954 2.49996 16.6667 5.67128 16.6667 9.58329H18.3333ZM9.58334 0.833293C4.75085 0.833293 0.833338 4.7508 0.833338 9.58329H2.50001C2.50001 5.67128 5.67132 2.49996 9.58334 2.49996V0.833293ZM0.833338 9.58329C0.833338 14.4158 4.75085 18.3333 9.58334 18.3333V16.6666C5.67132 16.6666 2.50001 13.4953 2.50001 9.58329H0.833338ZM9.58334 18.3333C14.4158 18.3333 18.3333 14.4158 18.3333 9.58329H16.6667C16.6667 13.4953 13.4954 16.6666 9.58334 16.6666V18.3333ZM14.8274 16.0059L17.7441 18.9225L18.9226 17.744L16.0059 14.8274L14.8274 16.0059Z" fill="white"/>
</svg>
