<svg width="20" height="20" viewBox="0 0 20 20" fill="none" xmlns="http://www.w3.org/2000/svg">
<path d="M16.0059 14.8274C15.6804 14.502 15.1528 14.502 14.8274 14.8274C14.5019 15.1529 14.5019 15.6805 14.8274 16.0059L16.0059 14.8274ZM17.744 18.9226C18.0695 19.248 18.5971 19.248 18.9225 18.9226C19.248 18.5972 19.248 18.0695 18.9225 17.7441L17.744 18.9226ZM18.3333 9.58335C18.3333 4.75086 14.4158 0.833354 9.58329 0.833354V2.50002C13.4953 2.50002 16.6666 5.67134 16.6666 9.58335H18.3333ZM9.58329 0.833354C4.7508 0.833354 0.833293 4.75086 0.833293 9.58335H2.49996C2.49996 5.67134 5.67128 2.50002 9.58329 2.50002V0.833354ZM0.833293 9.58335C0.833293 14.4158 4.7508 18.3334 9.58329 18.3334V16.6667C5.67128 16.6667 2.49996 13.4954 2.49996 9.58335H0.833293ZM9.58329 18.3334C14.4158 18.3334 18.3333 14.4158 18.3333 9.58335H16.6666C16.6666 13.4954 13.4953 16.6667 9.58329 16.6667V18.3334ZM14.8274 16.0059L17.744 18.9226L18.9225 17.7441L16.0059 14.8274L14.8274 16.0059Z" fill="#80869D"/>
</svg>
